Coordinates
version=1
nRows=4
nColumns=107
inDegrees=yes

Units are S.I. units (second, meters, Newtons, ...)
If the header above contains a line with 'inDegrees', this indicates whether rotational values are in degrees (yes) or radians (no).

endheader
time	sternoclavicular_r2	sternoclavicular_r3	unrotscap_r3	unrotscap_r2	acromioclavicular_r2	acromioclavicular_r3	acromioclavicular_r1	unrothum_r1	unrothum_r3	unrothum_r2	elv_angle	shoulder_elv	shoulder1_r2	shoulder_rot	elbow_flexion	pro_sup	deviation	flexion	proximal_distal_r1	proximal_distal_r3	cmc_flexion	cmc_abduction	mp_flexion	ip_flexion	mcp2_flexion	mcp2_abduction	pm2_flexion	md2_flexion	mcp3_flexion	mcp3_abduction	pm3_flexion	md3_flexion	mcp4_flexion	mcp4_abduction	pm4_flexion	md4_flexion	mcp5_flexion	mcp5_abduction	pm5_flexion	md5_flexion	bicpt_tx	bicpt_ty	bicpt_tz	bicpt2_tx	bicpt2_ty	bicpt2_tz	ptpt_tx	ptpt_ty	ptpt_tz	FCUpt_tx	FCUpt_ty	FCUpt_tz	EDCpt_tx	EDCpt_ty	EDCpt_tz	APLpt_tx	APLpt_ty	APLpt_tz	FPLpt_tx	FPLpt_ty	FPLpt_tz	FPLpt2_tx	FPLpt2_ty	FPLpt2_tz	PEC1pt2_tx	PEC1pt2_ty	PEC1pt2_tz	PEC1pt3_tx	PEC1pt3_ty	PEC1pt3_tz	PEC2pt2_tx	PEC2pt2_ty	PEC2pt2_tz	PEC2pt3_tx	PEC2pt3_ty	PEC2pt3_tz	PEC3pt2_tx	PEC3pt2_ty	PEC3pt2_tz	PEC3pt3_tx	PEC3pt3_ty	PEC3pt3_tz	DELT2pt2a_tx	DELT2pt2a_ty	DELT2pt2a_tz	DELT2pt2_tx	DELT2pt2_ty	DELT2pt2_tz	LAT1pt2_tx	LAT1pt2_ty	LAT1pt2_tz	LAT1pt3_tx	LAT1pt3_ty	LAT1pt3_tz	LAT2pt2_tx	LAT2pt2_ty	LAT2pt2_tz	LAT2pt3_tx	LAT2pt3_ty	LAT2pt3_tz	LAT3pt2_tx	LAT3pt2_ty	LAT3pt2_tz	LAT3pt3_tx	LAT3pt3_ty	LAT3pt3_tz
      1.40000000	     -0.32306567	      0.13683537	     -0.13683537	      0.32306567	     -0.06541423	      0.52865476	      0.23762668	     -0.23762668	     -0.52865476	      0.06541423	     98.71579805	     76.48866789	     -1.72291570	    -23.55283695	     30.84571096	     67.04327691	      0.26463103	     -0.50546652	      0.30182188	     -0.25273326	     15.33151077	     -4.88768848	    -27.61165954	      1.20160117	     11.86349970	      8.19612865	     43.40443481	     -7.83618902	     27.10850501	      2.46056984	     20.09476958	     18.06399787	     28.79356170	     -7.09408583	     20.50432031	     24.95527694	     35.98032990	    -13.53135956	     14.91626124	      5.26252783	      0.00092028	     -0.03113539	     -0.00486946	      0.01578837	     -0.01857939	     -0.00407042	      0.00259626	     -0.06810317	     -0.00545070	      0.01061578	     -0.18282867	     -0.00030302	     -0.00804517	      0.00259319	     -0.00024590	      0.00030320	      0.00012128	      0.00060640	      0.00038809	      0.00116428	      0.00065491	      0.00002303	     -0.00025270	     -0.00030324	      0.00250713	      0.00879620	      0.00611910	     -0.00820129	      0.01980208	     -0.01878223	      0.00250713	      0.00879620	      0.00611910	      0.00055242	      0.01835730	     -0.00964608	      0.00396010	      0.00489146	      0.01599729	      0.00000000	      0.00782473	      0.00000000	     -0.00718144	     -0.03318761	     -0.00645210	      0.01574202	     -0.00054348	     -0.00462850	     -0.00089237	      0.01495780	     -0.00611910	      0.00246464	      0.02158682	     -0.01784737	     -0.00599162	      0.01296059	     -0.00548169	     -0.01249316	      0.02736597	     -0.03063799	     -0.02345654	      0.01449037	     -0.00735142	     -0.01555271	      0.03161534	     -0.03828686
      1.43333333	     -0.32249760	      0.13659476	     -0.13659476	      0.32249760	     -0.06529920	      0.52772520	      0.23720884	     -0.23720884	     -0.52772520	      0.06529920	     98.85319724	     76.35417345	     -1.72531377	    -24.22971302	     30.92865693	     67.97216986	      0.26548035	     -0.45457885	      0.30260607	     -0.22728942	     16.42666264	     -4.57149813	    -28.02229792	      0.38415222	      9.78560742	      8.78246149	     42.12847155	     -5.71253569	     25.16082807	      2.47202688	     19.53478335	     17.75311381	     26.26480139	     -6.97354699	     20.65691995	     25.14116927	     33.69384665	    -13.58589802	     14.85071672	      5.28539156	      0.00092302	     -0.03114490	     -0.00487099	      0.01573165	     -0.01860192	     -0.00393543	      0.00252762	     -0.06814755	     -0.00552552	      0.01071719	     -0.18280209	     -0.00029037	     -0.00815664	      0.00263887	     -0.00026642	      0.00029205	      0.00011682	      0.00058410	      0.00037382	      0.00112147	      0.00063083	      0.00002052	     -0.00026076	     -0.00031291	      0.00250272	      0.00878074	      0.00610834	     -0.00818687	      0.01976726	     -0.01874921	      0.00250272	      0.00878074	      0.00610834	      0.00055145	      0.01832502	     -0.00962912	      0.00395502	      0.00488286	      0.01598492	      0.00000000	      0.00779704	      0.00000000	     -0.00716881	     -0.03312926	     -0.00642912	      0.01609738	     -0.00056526	     -0.00490322	     -0.00089080	      0.01493150	     -0.00610834	      0.00246030	      0.02154886	     -0.01781599	     -0.00598108	      0.01293780	     -0.00547205	     -0.01247119	      0.02731785	     -0.03058411	     -0.02341530	      0.01446489	     -0.00733849	     -0.01552536	      0.03155975	     -0.03821954
      1.46666667	     -0.32156666	      0.13620046	     -0.13620046	      0.32156666	     -0.06511071	      0.52620183	      0.23652410	     -0.23652410	     -0.52620183	      0.06511071	     99.07472233	     76.13376393	     -1.72918011	    -25.31735746	     31.00365841	     69.22819985	      0.26021512	     -0.41096644	      0.29772588	     -0.20548322	     17.26857891	     -4.37061804	    -27.75366285	     -1.18734354	      7.95504876	      9.35241244	     40.61220563	     -4.35691951	     23.53536951	      2.38961499	     18.61706836	     17.75198673	     23.73509008	     -6.98729587	     20.84560378	     26.08442449	     31.42468323	    -13.67019742	     14.42414727	      5.28205804	      0.00092550	     -0.03115349	     -0.00487237	      0.01565181	     -0.01862230	     -0.00375098	      0.00243482	     -0.06820756	     -0.00562670	      0.01085473	     -0.18276576	     -0.00027223	     -0.00830736	      0.00270105	     -0.00029491	      0.00027904	      0.00011162	      0.00055808	      0.00035717	      0.00107151	      0.00060272	      0.00001852	     -0.00026605	     -0.00031926	      0.00249550	      0.00875539	      0.00609071	     -0.00816324	      0.01971020	     -0.01869508	      0.00249550	      0.00875539	      0.00609071	      0.00054986	      0.01827212	     -0.00960132	      0.00394668	      0.00486876	      0.01596457	      0.00000000	      0.00775178	      0.00000000	     -0.00714812	     -0.03303362	     -0.00639154	      0.01665561	     -0.00060059	     -0.00535823	     -0.00088823	      0.01488839	     -0.00609071	      0.00245320	      0.02148666	     -0.01776456	     -0.00596382	      0.01290045	     -0.00545626	     -0.01243519	      0.02723899	     -0.03049583	     -0.02334771	      0.01442313	     -0.00731731	     -0.01548055	      0.03146865	     -0.03810921
      1.50000000	     -0.32148775	      0.13616704	     -0.13616704	      0.32148775	     -0.06509473	      0.52607271	      0.23646606	     -0.23646606	     -0.52607271	      0.06509473	     99.08003588	     76.11508195	     -1.72927285	    -25.43031164	     31.11316806	     70.09225827	      0.26728089	     -0.34104781	      0.30426452	     -0.17052390	     17.83945305	     -4.81317031	    -26.48249202	     -3.88822198	      6.09975365	      9.75149017	     39.08511811	     -3.61000261	     22.09055931	      2.21768308	     17.46409537	     18.20541319	     21.59281382	     -6.99963553	     20.46948151	     27.70575466	     29.32023563	    -13.74290418	     13.84401721	      5.24876756	      0.00092913	     -0.03116604	     -0.00487440	      0.01559480	     -0.01865204	     -0.00362281	      0.00237097	     -0.06824884	     -0.00569631	      0.01094963	     -0.18274051	     -0.00025907	     -0.00841105	      0.00274411	     -0.00031500	      0.00025154	      0.00010061	      0.00050307	      0.00032197	      0.00096590	      0.00054332	      0.00001713	     -0.00026919	     -0.00032303	      0.00249489	      0.00875324	      0.00608921	     -0.00816124	      0.01970537	     -0.01869050	      0.00249489	      0.00875324	      0.00608921	      0.00054972	      0.01826764	     -0.00959897	      0.00394598	      0.00486757	      0.01596284	      0.00000000	      0.00774795	      0.00000000	     -0.00714637	     -0.03302552	     -0.00638836	      0.01671263	     -0.00060429	     -0.00540648	     -0.00088801	      0.01488474	     -0.00608921	      0.00245260	      0.02148139	     -0.01776020	     -0.00596235	      0.01289729	     -0.00545492	     -0.01243214	      0.02723231	     -0.03048834	     -0.02334198	      0.01441959	     -0.00731551	     -0.01547675	      0.03146093	     -0.03809986
